<svg width="18" height="18" viewBox="0 0 18 18" fill="none" xmlns="http://www.w3.org/2000/svg">
<path fill-rule="evenodd" clip-rule="evenodd" d="M10.7018 1.37647L11.7993 1.37646L12.2033 3.17013C12.4984 4.47966 13.521 5.50229 14.8305 5.79727L16.6242 6.20132V7.29882L14.8305 7.70287C13.5209 7.99785 12.4984 9.02044 12.2033 10.33L11.7993 12.1237H10.7018L10.2978 10.33C10.0028 9.02045 8.98018 7.99785 7.67065 7.70287L5.87695 7.29882V6.20132L7.67065 5.79728C8.98011 5.50229 10.0028 4.47966 10.2978 3.17015L10.7018 1.37647Z" fill="#4A4459"/>
<path fill-rule="evenodd" clip-rule="evenodd" d="M4.41321 10.1577L4.70181 8.87646H5.79931L6.08792 10.1577C6.28499 11.0325 6.96816 11.7157 7.84295 11.9127L9.12417 12.2013V13.2988L7.84295 13.5874C6.96815 13.7845 6.28498 14.4676 6.08792 15.3425L5.79931 16.6237H4.70181L4.41321 15.3425C4.21614 14.4676 3.53298 13.7845 2.65816 13.5874L1.37695 13.2988V12.2013L2.65815 11.9127C3.53298 11.7157 4.21614 11.0325 4.41321 10.1577Z" fill="#4A4459"/>
</svg>
