<svg width="16" height="16" viewBox="0 0 16 16" fill="none" xmlns="http://www.w3.org/2000/svg">
<mask id="mask0_1065_76210" style="mask-type:alpha" maskUnits="userSpaceOnUse" x="0" y="0" width="16" height="16">
<path fill-rule="evenodd" clip-rule="evenodd" d="M3.33301 2.66667C2.96482 2.66667 2.66634 2.96515 2.66634 3.33334V12.3905L4.19494 10.8619C4.31996 10.7369 4.48953 10.6667 4.66634 10.6667H12.6663C13.0345 10.6667 13.333 10.3682 13.333 10V3.33334C13.333 2.96515 13.0345 2.66667 12.6663 2.66667H3.33301ZM1.33301 3.33334C1.33301 2.22877 2.22844 1.33334 3.33301 1.33334H12.6663C13.7709 1.33334 14.6663 2.22877 14.6663 3.33334V10C14.6663 11.1046 13.7709 12 12.6663 12H4.94248L2.47108 14.4714C2.28041 14.6621 1.99367 14.7191 1.74455 14.6159C1.49544 14.5127 1.33301 14.2696 1.33301 14V3.33334Z" fill="#192839"/>
</mask>
<g mask="url(#mask0_1065_76210)">
<rect width="16" height="16" fill="black"/>
</g>
</svg>
