<svg width="16" height="16" viewBox="0 0 16 16" fill="none" xmlns="http://www.w3.org/2000/svg">
<mask id="mask0_1065_76217" style="mask-type:alpha" maskUnits="userSpaceOnUse" x="0" y="0" width="16" height="16">
<path fill-rule="evenodd" clip-rule="evenodd" d="M6 1.33333C4.15905 1.33333 2.66667 2.82572 2.66667 4.66667C2.66667 6.50762 4.15905 8 6 8C7.84095 8 9.33333 6.50762 9.33333 4.66667C9.33333 2.82572 7.84095 1.33333 6 1.33333ZM4 4.66667C4 3.5621 4.89543 2.66667 6 2.66667C7.10457 2.66667 8 3.5621 8 4.66667C8 5.77124 7.10457 6.66667 6 6.66667C4.89543 6.66667 4 5.77124 4 4.66667Z" fill="#192839"/>
<path d="M3.33333 9.33333C1.49238 9.33333 0 10.8257 0 12.6667V14C0 14.3682 0.298477 14.6667 0.666667 14.6667C1.03486 14.6667 1.33333 14.3682 1.33333 14V12.6667C1.33333 11.5621 2.22876 10.6667 3.33333 10.6667H8.66667C9.77124 10.6667 10.6667 11.5621 10.6667 12.6667V14C10.6667 14.3682 10.9651 14.6667 11.3333 14.6667C11.7015 14.6667 12 14.3682 12 14V12.6667C12 10.8257 10.5076 9.33333 8.66667 9.33333H3.33333Z" fill="#192839"/>
<path d="M12.6878 9.92C12.7799 9.56351 13.1435 9.34912 13.5 9.44117C14.9708 9.82094 15.9989 11.1471 16 12.6662V14C16 14.3682 15.7015 14.6667 15.3333 14.6667C14.9651 14.6667 14.6667 14.3682 14.6667 14V12.6672C14.6659 11.7558 14.0491 10.96 13.1667 10.7322C12.8102 10.6401 12.5958 10.2765 12.6878 9.92Z" fill="#192839"/>
<path d="M10.832 1.44083C10.4753 1.34951 10.1122 1.56462 10.0208 1.92131C9.92951 2.27799 10.1446 2.64118 10.5013 2.7325C11.3863 2.95909 12.0052 3.7565 12.0052 4.67C12.0052 5.58351 11.3863 6.38092 10.5013 6.6075C10.1446 6.69883 9.92951 7.06201 10.0208 7.41869C10.1122 7.77538 10.4753 7.99049 10.832 7.89917C12.307 7.52153 13.3386 6.19251 13.3386 4.67C13.3386 3.14749 12.307 1.81848 10.832 1.44083Z" fill="#192839"/>
</mask>
<g mask="url(#mask0_1065_76217)">
<rect width="16" height="16" fill="black"/>
</g>
</svg>
