<svg width="20" height="20" viewBox="0 0 20 20" fill="none" xmlns="http://www.w3.org/2000/svg">
<mask id="mask0_587_1167" style="mask-type:alpha" maskUnits="userSpaceOnUse" x="0" y="0" width="20" height="21">
<rect y="0.000244141" width="20" height="20" fill="#D9D9D9"/>
</mask>
<g mask="url(#mask0_587_1167)">
<path d="M9.99967 10.0002C10.458 10.0002 10.8504 9.83701 11.1768 9.51062C11.5031 9.18423 11.6663 8.79187 11.6663 8.33354C11.6663 7.8752 11.5031 7.48284 11.1768 7.15645C10.8504 6.83006 10.458 6.66687 9.99967 6.66687C9.54134 6.66687 9.14898 6.83006 8.82259 7.15645C8.4962 7.48284 8.33301 7.8752 8.33301 8.33354C8.33301 8.79187 8.4962 9.18423 8.82259 9.51062C9.14898 9.83701 9.54134 10.0002 9.99967 10.0002ZM9.99967 16.1252C11.6941 14.5696 12.9511 13.1565 13.7705 11.8856C14.59 10.6148 14.9997 9.48631 14.9997 8.5002C14.9997 6.98631 14.517 5.74673 13.5518 4.78145C12.5865 3.81618 11.4025 3.33354 9.99967 3.33354C8.5969 3.33354 7.41287 3.81618 6.44759 4.78145C5.48231 5.74673 4.99967 6.98631 4.99967 8.5002C4.99967 9.48631 5.4094 10.6148 6.22884 11.8856C7.04829 13.1565 8.30523 14.5696 9.99967 16.1252ZM9.99967 18.3335C7.76356 16.4308 6.09342 14.6634 4.98926 13.0315C3.88509 11.3995 3.33301 9.88909 3.33301 8.5002C3.33301 6.41687 4.00315 4.75715 5.34342 3.52104C6.6837 2.28493 8.23579 1.66687 9.99967 1.66687C11.7636 1.66687 13.3156 2.28493 14.6559 3.52104C15.9962 4.75715 16.6663 6.41687 16.6663 8.5002C16.6663 9.88909 16.1143 11.3995 15.0101 13.0315C13.9059 14.6634 12.2358 16.4308 9.99967 18.3335Z" fill="#49454F"/>
</g>
</svg>
