<svg width="16" height="16" viewBox="0 0 16 16" fill="none" xmlns="http://www.w3.org/2000/svg">
<mask id="mask0_1065_76203" style="mask-type:alpha" maskUnits="userSpaceOnUse" x="0" y="0" width="16" height="16">
<path fill-rule="evenodd" clip-rule="evenodd" d="M3.99967 5.66666C3.99967 4.74619 4.74587 3.99999 5.66634 3.99999C6.58682 3.99999 7.33301 4.74619 7.33301 5.66666C7.33301 6.58714 6.58682 7.33333 5.66634 7.33333C4.74587 7.33333 3.99967 6.58714 3.99967 5.66666ZM5.66634 5.33333C5.48225 5.33333 5.33301 5.48257 5.33301 5.66666C5.33301 5.85076 5.48225 6 5.66634 6C5.85044 6 5.99967 5.85076 5.99967 5.66666C5.99967 5.48257 5.85044 5.33333 5.66634 5.33333Z" fill="#192839"/>
<path fill-rule="evenodd" clip-rule="evenodd" d="M1.33301 3.33333C1.33301 2.22876 2.22844 1.33333 3.33301 1.33333H12.6663C13.7709 1.33333 14.6663 2.22876 14.6663 3.33333V12.6667C14.6663 13.7712 13.7709 14.6667 12.6663 14.6667H3.33301C2.22844 14.6667 1.33301 13.7712 1.33301 12.6667V3.33333ZM3.33301 2.66666C2.96482 2.66666 2.66634 2.96514 2.66634 3.33333V12.6667C2.66634 12.9525 2.84628 13.1964 3.09907 13.2911L10.195 6.19526C10.4553 5.93491 10.8774 5.93491 11.1378 6.19526L13.333 8.39049V3.33333C13.333 2.96514 13.0345 2.66666 12.6663 2.66666H3.33301ZM13.333 10.2761L10.6664 7.60947L4.94249 13.3333H12.6663C13.0345 13.3333 13.333 13.0349 13.333 12.6667V10.2761Z" fill="#192839"/>
</mask>
<g mask="url(#mask0_1065_76203)">
<rect width="16" height="16" fill="black"/>
</g>
</svg>
