<svg width="36" height="36" viewBox="0 0 36 36" fill="none" xmlns="http://www.w3.org/2000/svg">
<rect width="36" height="36" rx="18" fill="#305EFF"/>
<path d="M18.667 13.3333C18.667 12.9651 18.3685 12.6667 18.0003 12.6667C17.6321 12.6667 17.3337 12.9651 17.3337 13.3333V17.3333H13.3337C12.9655 17.3333 12.667 17.6318 12.667 18C12.667 18.3682 12.9655 18.6667 13.3337 18.6667H17.3337V22.6667C17.3337 23.0349 17.6321 23.3333 18.0003 23.3333C18.3685 23.3333 18.667 23.0349 18.667 22.6667V18.6667H22.667C23.0352 18.6667 23.3337 18.3682 23.3337 18C23.3337 17.6318 23.0352 17.3333 22.667 17.3333H18.667V13.3333Z" fill="white"/>
</svg>
